<svg viewBox="0 0 800 500" xmlns="http://www.w3.org/2000/svg">
  <defs>
    <marker id="arrow" markerWidth="10" markerHeight="10" refX="9" refY="3" orient="auto">
      <polygon points="0 0, 10 3, 0 6" fill="#2563eb" />
    </marker>
  </defs>
  
  <!-- Titre -->
  <text x="400" y="30" text-anchor="middle" font-size="22" font-weight="bold" fill="#1e40af">
    Chaîne de Markov à Temps Discret
  </text>
  <text x="400" y="55" text-anchor="middle" font-size="14" fill="#666">
    Modélisation du système de feux de circulation
  </text>
  
  <!-- États disposés en cercle -->
  
  <!-- S1 -->
  <circle cx="400" cy="150" r="45" fill="#dcfce7" stroke="#16a34a" stroke-width="3"/>
  <text x="400" y="145" text-anchor="middle" font-size="16" font-weight="bold">S1</text>
  <text x="400" y="162" text-anchor="middle" font-size="11">A Vert</text>
  
  <!-- S2 -->
  <circle cx="620" cy="200" r="45" fill="#fef3c7" stroke="#d97706" stroke-width="3"/>
  <text x="620" y="195" text-anchor="middle" font-size="16" font-weight="bold">S2</text>
  <text x="620" y="212" text-anchor="middle" font-size="11">A Jaune</text>
  
  <!-- S3 -->
  <circle cx="650" cy="380" r="45" fill="#dcfce7" stroke="#16a34a" stroke-width="3"/>
  <text x="650" y="375" text-anchor="middle" font-size="16" font-weight="bold">S3</text>
  <text x="650" y="392" text-anchor="middle" font-size="11">B Vert</text>
  
  <!-- S4 -->
  <circle cx="400" cy="430" r="45" fill="#fef3c7" stroke="#d97706" stroke-width="3"/>
  <text x="400" y="425" text-anchor="middle" font-size="16" font-weight="bold">S4</text>
  <text x="400" y="442" text-anchor="middle" font-size="11">B Jaune</text>
  
  <!-- S5 -->
  <circle cx="180" cy="350" r="45" fill="#dbeafe" stroke="#2563eb" stroke-width="3"/>
  <text x="180" y="345" text-anchor="middle" font-size="16" font-weight="bold">S5</text>
  <text x="180" y="362" text-anchor="middle" font-size="11">Piétons</text>
  
  <!-- Transitions avec probabilités -->
  
  <!-- S1 → S2 -->
  <path d="M 440 165 L 580 185" fill="none" stroke="#2563eb" stroke-width="3" marker-end="url(#arrow)"/>
  <rect x="485" y="155" width="60" height="25" fill="white" stroke="#2563eb" stroke-width="1" rx="3"/>
  <text x="515" y="172" text-anchor="middle" font-size="13" font-weight="bold" fill="#2563eb">P = 1</text>
  
  <!-- S2 → S3 -->
  <path d="M 635 240 L 650 335" fill="none" stroke="#2563eb" stroke-width="3" marker-end="url(#arrow)"/>
  <rect x="660" y="275" width="60" height="25" fill="white" stroke="#2563eb" stroke-width="1" rx="3"/>
  <text x="690" y="292" text-anchor="middle" font-size="13" font-weight="bold" fill="#2563eb">P = 1</text>
  
  <!-- S3 → S4 -->
  <path d="M 610 395 L 445 425" fill="none" stroke="#2563eb" stroke-width="3" marker-end="url(#arrow)"/>
  <rect x="500" y="395" width="60" height="25" fill="white" stroke="#2563eb" stroke-width="1" rx="3"/>
  <text x="530" y="412" text-anchor="middle" font-size="13" font-weight="bold" fill="#2563eb">P = 1</text>
  
  <!-- S4 → S5 -->
  <path d="M 360 415 L 220 365" fill="none" stroke="#2563eb" stroke-width="3" marker-end="url(#arrow)"/>
  <rect x="265" y="375" width="60" height="25" fill="white" stroke="#2563eb" stroke-width="1" rx="3"/>
  <text x="295" y="392" text-anchor="middle" font-size="13" font-weight="bold" fill="#2563eb">P = 1</text>
  
  <!-- S5 → S1 -->
  <path d="M 210 320 L 370 180" fill="none" stroke="#2563eb" stroke-width="3" marker-end="url(#arrow)"/>
  <rect x="265" y="235" width="60" height="25" fill="white" stroke="#2563eb" stroke-width="1" rx="3"/>
  <text x="295" y="252" text-anchor="middle" font-size="13" font-weight="bold" fill="#2563eb">P = 1</text>
  
  <!-- Encadré : Matrice de transition -->
  <rect x="20" y="80" width="180" height="180" fill="#f8fafc" stroke="#334155" stroke-width="2" rx="5"/>
  <text x="110" y="105" text-anchor="middle" font-size="13" font-weight="bold">Matrice P:</text>
  
  <text x="30" y="130" font-size="10" font-family="monospace">    S1  S2  S3  S4  S5</text>
  <text x="30" y="145" font-size="10" font-family="monospace">S1│ 0   1   0   0   0 │</text>
  <text x="30" y="160" font-size="10" font-family="monospace">S2│ 0   0   1   0   0 │</text>
  <text x="30" y="175" font-size="10" font-family="monospace">S3│ 0   0   0   1   0 │</text>
  <text x="30" y="190" font-size="10" font-family="monospace">S4│ 0   0   0   0   1 │</text>
  <text x="30" y="205" font-size="10" font-family="monospace">S5│ 1   0   0   0   0 │</text>
  
  <text x="110" y="230" text-anchor="middle" font-size="9" fill="#64748b">Déterministe</text>
  <text x="110" y="245" text-anchor="middle" font-size="9" fill="#64748b">(une seule transition</text>
  <text x="110" y="255" text-anchor="middle" font-size="9" fill="#64748b">possible par état)</text>
  
  <!-- Propriétés -->
  <rect x="20" y="300" width="180" height="140" fill="#fef3c7" stroke="#d97706" stroke-width="2" rx="5"/>
  <text x="110" y="325" text-anchor="middle" font-size="13" font-weight="bold" fill="#92400e">Propriétés</text>
  <text x="30" y="345" font-size="10" fill="#78350f">✓ Irréductible:</text>
  <text x="35" y="360" font-size="9" fill="#78350f">  Tous états accessibles</text>
  <text x="30" y="380" font-size="10" fill="#78350f">✓ Périodique (période = 5):</text>
  <text x="35" y="395" font-size="9" fill="#78350f">  Retour à S1 tous les 5 pas</text>
  <text x="30" y="415" font-size="10" fill="#78350f">✓ Distribution stationnaire:</text>
  <text x="35" y="430" font-size="9" fill="#78350f">  π = [0.2, 0.2, 0.2, 0.2, 0.2]</text>
  
  <!-- Note explicative -->
  <rect x="220" y="450" width="560" height="40" fill="#e0f2fe" stroke="#0369a1" stroke-width="1" rx="3"/>
  <text x="230" y="468" font-size="11" fill="#0c4a6e">
    💡 Cette chaîne est <tspan font-weight="bold">déterministe</tspan> car chaque transition a une probabilité de 1.
  </text>
  <text x="230" y="482" font-size="11" fill="#0c4a6e">
    À long terme, le système passe 20% du temps dans chaque état (distribution uniforme).
  </text>
</svg>